<svg version="1.0" xmlns="http://www.w3.org/2000/svg" width="613.3333" height="613.3333" viewBox="0 0 460 460"><metadata>Created by potrace 1.16, written by Peter Selinger 2001-2019</metadata><path d="M189 15.9c-3.4.6 30.5.3 34.5-.3 1.1-.2-5.4-.3-14.5-.3s-18.1.3-20 .6zM233.3 16.7c.9.2 2.5.2 3.5 0 .9-.3.1-.5-1.8-.5-1.9 0-2.7.2-1.7.5zM182.8 17.7c.7.3 1.6.2 1.9-.1.4-.3-.2-.6-1.3-.5-1.1 0-1.4.3-.6.6zM240.8 17.7c.6.2 1.8.2 2.5 0 .6-.3.1-.5-1.3-.5-1.4 0-1.9.2-1.2.5zM195.5 18.7c-9.8 1.3-21 3.8-29.4 6.7-17.9 6.2-23.7 10.2-37.1 25.3-2.6 2.9-8.4 12.7-13.1 22.3-3.9 7.7-9.9 20.9-9.9 21.6 0 .3-.8 2.4-1.9 4.7-2.4 5.4-8.3 26.9-11.5 41.7l-2.4 11.5-.1-6.2c-.2-11.2 3.2-30.6 7.9-45.3 2.7-8.4 1.2-11.1-1.9-3.4-1.7 3.9-2.6 5.2-3.2 4.2-.5-.7-.9-1-.9-.7 0 .3-1.3 4.3-3 8.8-1.6 4.6-3.7 11.7-4.5 15.9-.9 4.3-2.4 10.8-3.5 14.7-3.4 12.4-7.6 38.5-10 62-1.7 16-4.5 35.1-5.1 34-1.2-2.3 1.9-56.5 4.1-70.7 1.2-8.1 2-15.3 1.7-16-.3-.7-.6-.3-.6.9-.1 1.2-.7 4.6-1.5 7.6-2.4 9.3-6.3 71.6-5.3 85.5.5 6.9 0 14.2-2.2 32-1.6 12.6-3.4 23.8-3.9 24.9-.6 1-2.2 6.1-3.6 11.3-2.7 10.5-5.1 17.8-10.3 32-2 5.2-4.4 12.6-5.5 16.5-1 3.8-3 9.7-4.3 13-4.1 10.5-11.3 46.6-13.5 68.1-.5 5.4-1.3 11.8-1.6 14.1l-.5 4.3h11.6l2.4-6.3c1.3-3.4 3.9-9.4 5.8-13.2 3.4-6.6 8.5-22.9 10.2-32.2.9-4.7 1.3-5.3 9.4-13.5 3.1-3.2 6.5-7 7.4-8.4l1.6-2.6 12.1.7c7.1.4 11.6.3 10.8-.3-.9-.6.3-1.8 4-4.2 6-3.7 15.9-11.9 20.1-16.5 1.5-1.6 5.2-6.7 8.2-11.2 8.9-13.3 9.3-11.8 1.1 3.6-4.8 8.9-12.2 17.2-18.5 20.8-2.5 1.5-5.7 3.5-7 4.5-1.3 1-3.3 1.8-4.5 1.9-1.1 0-1.5.3-.8.6s2.6 0 4.2-.6c3.2-1.1 3.8-.4 1.7 1.9-1 1.2-.9 1.2.4.2 1.3-.9 1.7-.5 2.6 3.1 1.6 5.8 10.6 15 18 18.4 5.2 2.4 6 2.5 10.2 1.4 5.8-1.5 7.5-3.1 10.4-9.5 2.4-5.2 3.8-10.4 6-23.4l1.2-7.2 2.2 2.2c8.3 8.6 9.1 9.9 10.3 15 .7 2.9 1.6 6 2.1 6.9.5.9 1.7 5.4 2.8 10 3.4 14.3 6.8 27.2 8.4 31.9.8 2.5 2 8.5 2.7 13.5 1.8 13.8.4 12.5 13.6 12.5h11.5l-.3-10.6c-.3-9.7-.2-10.5 1.5-10 1.1.3 2.4-.5 3.4-2.1 1.8-2.8 3.2-2.7 12.1 1 5 2 5.3 2.3 4.9 5.1-.3 2.5.3 3.7 4.2 7.4 8.9 8.7 10.3 9.2 25.6 9.2H266v-3.1c0-1.8-1.1-4.5-2.9-6.7-5.7-7.3-9.8-16.4-10.3-22.8-.3-3.4-.3-6.6.1-7.3.4-.6 3.3-1.8 6.4-2.6 17.9-4.7 31.5-16.5 37-32.1 1.5-4 7-16.4 8.7-19.6 2.7-4.8 8.1-30.5 9.3-43.9l1.3-14.4.8 8.5c.4 4.7 1.1 12.8 1.6 18 .5 5.2 1.3 11.6 1.9 14.2 1.5 6.7 3.2 39.1 4.1 77.8.4 18.4.8 33.6.9 33.7.1.2 7.5.3 16.6.3H358l.1-3.3.1-3.2.7 3c.4 2 1.3 3.1 2.7 3.3 2.7.4 2.9-.8 4.4-21.3 1.7-23.5 1.9-23.5 1.5 0-.2 15.1 0 21.2.7 19.5 1.2-3.3 2.8-38.7 2.6-61.5l-.1-18-.8 17.3c-.4 9.6-1 17.6-1.3 18-.4.3-.5-11.2-.2-25.7.2-14.4.2-26.1 0-25.9-.2.2-1.1 7.6-2 16.4-1.5 15-4.1 30.4-4.3 25.8-.1-1.1.6-6.8 1.4-12.6 3.4-24.2 4.7-59.2 4.1-107.8-.4-25.6-1.2-52.8-1.8-60.5l-1.2-14-2.8 21.5c-1.5 11.8-3.3 24.6-4.1 28.5-1.2 6.3-1.4 6.7-2.1 4-.4-1.6-.6-14.8-.5-29.2.2-14.4 0-26.5-.4-26.9-.4-.4-.7.1-.7 1.2 0 1-.9 3.7-2 5.9l-2 4 .5-4.6c.3-2.5.8-5.7 1-7 2.9-16.6 3.4-57 .8-70.4l-1.8-9-.3 8.5c-.3 10.1-1.7 12.5-2.4 4.2-.3-3.2-2.5-11.7-4.9-18.8l-4.4-12.9-.3 7.5c-.3 10.5-.6 10.8-4.9 6.5-5.8-5.5-14.5-11.5-28.6-19.5-7-4-12.5-7.5-12.3-7.7.6-.6 16.5 6.4 20.6 9.1 6.9 4.5 18.2 12.1 20.1 13.5 1.8 1.3 1.9 1 1.9-8.4 0-8.5.2-9.6 1.5-8.5.8.7 1.5 1.8 1.5 2.4 0 .6 1.2 2.9 2.6 5.1l2.5 4-.7-3.5c-1.4-7.2-6.5-21.9-8.4-24.3-1.1-1.4-2-3-2-3.5 0-.6-1.6-3.3-3.5-6.2-1.9-2.9-3.5-5.4-3.5-5.6 0-.3-1.8-2.9-3.9-5.8C311 49.9 280 30 262 25.5c-3.6-.9-9-2.3-12-3.1-11.6-2.9-43.6-5.1-54.5-3.7zm-8.6 61c-5.9 11.6-7.4 13.4-6.6 8.1.3-2.1.2-4-.3-4.3-.5-.3-1.5-1.8-2.3-3.4-1.3-2.5-1.2-3.1.4-5.2 2.1-2.8 2.7-1.9 3.1 4.6l.3 4 2.9-4.5c2.8-4.1 6.6-9 7.2-9 .1 0-2 4.4-4.7 9.7zm95.3 70.5c-2.6 10.3-2.5 28.3.3 46.5.8 5.4 3.6 13.1 6 16.2 1.4 1.9 2.5 3.3 2.5 3 0-.2-1.1-4.5-2.5-9.4-1.6-5.5-2.8-13.2-3.2-19.9-.6-10.8-.6-10.8 1.5-9.7 1.3.7 2.5 2.8 3.2 5.4 2.3 9.6 8.5 27.5 11.2 32.2 1.5 2.7 4.4 6.8 6.4 9s3.1 3.3 2.5 2.4c-1.9-2.8-4.9-12.5-6.4-21.1-1.6-9.1-2.1-29.3-.9-34.8.8-3.2.9-3 1.6 3.5.9 8.2 1 8.8 3.1 22 .9 5.5 2.3 11.3 3.1 13 .7 1.6 1.8 5.2 2.4 8 .6 2.7 2.4 7.5 3.9 10.6l2.9 5.5-4.9.1c-8.9.1-14.3 6.6-17 20.4-1.4 6.9-.4 8.5 3.8 6.6 2.4-1.1 2.9-2.2 1.3-3.2-1.1-.7.8-5.5 2.3-5.5.5 0 1.1.9 1.4 1.9 1.1 4.3 8-2.2 11.3-10.7.9-2.4 1.5-3 2.1-2 1.1 1.6 1.2 6.8.2 6.8-.5 0-2.1 1.9-3.8 4.2-1.6 2.2-4.3 4.9-6 5.9-1.6 1.1-2.4 1.9-1.6 1.9.8 0 2.3-.8 3.4-1.7 2-1.8 2-1.6 1.3 22.2-.8 26.9-1.5 37.3-2.6 39.5-.5.8-1.5 6.7-2.4 13-3.6 25-10.8 48.6-17.7 57.8-6.2 8.2-16.5 18.3-23.1 22.5-5.4 3.5-13.3 6.1-15 5.1-1.2-.8-1-22.5.4-32.5 1.2-9.4 1.4-9.8 8.9-15.9 5.9-4.8 10.3-9.8 14.1-15.6 1.7-2.7 3.9-5.8 4.9-6.9 3.5-4.1 12.7-21.6 16.5-31.5 2.1-5.4 6.2-19.7 8-27.5.8-3.8 2.4-18 2.3-20.5-.1-1.4-.5.1-1 3.3-.9 6.6-5.5 16.2-10.4 22.2-6.5 8-41.1 42.3-43.3 43-2.5.7-16.1-5.3-24-10.6-2.4-1.6-5.7-3.6-7.5-4.5-1.8-.9-4.3-2.6-5.7-3.8l-2.5-2.1 2.4 2.7 2.4 2.8h-2.7c-4.3 0-9.2 2.5-14.4 7.4-2.7 2.5-5.2 4.6-5.6 4.6-.9 0-.7-44.2.3-56 1.3-13.6 2-28.1 3-56.8.5-12.9 1.3-23.8 1.8-24.3s3.2-1.2 5.9-1.5l5-.6 3.8 9.1c3.1 7.5 3.6 9.4 2.6 10.7-1.1 1.2-1 1.3.4.8 1.1-.4 1.6-.1 1.6 1.4 0 1.1 1.5 3.7 3.4 5.6 1.8 2 3 3.8 2.7 4.1-.3.3.3.3 1.4-.1 1.5-.6 1.7-.4 1.2.9-.6 1.5-.3 1.6 1.3.7 1.1-.6 2-1.5 2-2.1 0-.5 1.1-1.4 2.4-2.1 3.4-1.5 4.1-3.8 1.6-5.5-2.1-1.5-2.7-5.7-1-6.8 2-1.3 4.9.7 6 4 1 3.1 1.3 3.3 3.1 2.2 2.5-1.5 5.5-7.1 6.4-12 .4-2.1 1.3-3.7 2.1-3.7 2.2 0 10.3 8.8 11.2 12.2.5 1.8 1.4 3.2 2 3.1.6-.2.9.4.6 1.2-.8 1.9 1.5 8.7 2.7 7.9.5-.3.6-1.7.3-3.2-.4-2.1-.3-2.4.5-1.2.9 1.2 1 .9.5-1.3-.5-2-.2-2.7.9-2.7.9 0 1.9.4 2.2 1 .3.5 1.8.9 3.3.9 2.1-.1 2.2-.2.7-.6-1.1-.3-2.5-1.1-3.2-2-.6-.8-1.4-1.4-1.7-1.4-1.9.2-2.4-.1-3.5-2.5-.6-1.5-.9-3.4-.6-4.4.4-1.3-.5-2.7-3.1-4.7-6.1-4.6-14.4-12.5-13.9-13.2.2-.4-2.3-.5-5.6-.3-3.7.3-6.5 0-7.2-.7-.6-.6-2-1.1-3.1-1.2-1.2 0 1.2-1.6 5.5-3.7 7.8-3.9 22.7-15.1 28.9-21.9 3.9-4.2 8-9.8 8-10.9 0-1.1 4.3-5.5 4.8-4.9.3.2 0 2.4-.6 4.7zm4.8 15.5c.4 3.7.9 7.5 1.1 8.3.2.8-.3 1.5-1.1 1.5-1.2 0-1.6-1.8-1.8-9-.3-10.3.7-10.8 1.8-.8zm-138-2.5c0 1.4-1.4 3.4-3.5 5.1-1.9 1.5-3.5 3.6-3.5 4.5 0 1.2.4 1.1 1.3-.7.6-1.3 2.3-3.1 3.6-3.9l2.3-1.6-.4 10c-.2 7.4-.8 10.8-2.1 12.7-1 1.5-1.3 2.7-.7 2.7.5 0 1-.4 1-.8 0-.5.7-1.7 1.6-2.8 1.4-1.8 1.5-1.5.9 3.6-.4 3-.7 12.6-.6 21.2.1 8.7-.2 15.8-.6 15.8-.5 0-2.5-3.3-4.6-7.3-2.1-3.9-5.2-9.7-6.8-12.7-2.7-4.8-3-6.2-2.5-10.5.4-2.8.9-8.3 1.3-12.3.3-3.9 1-7.2 1.4-7.2.5 0 .9.3.9.7 0 .5 1.1 2.1 2.5 3.8l2.5 3-2.1-3.8c-1.2-2.2-2.8-4.1-3.5-4.4-3.3-1.2 1.5-11.8 6.9-15.1 4.2-2.6 4.7-2.6 4.7 0zm179.4 42.3c2.4 13.7 4.5 21.9 5.6 22.3 1.8.6 1.1 2.1-2.9 6.2l-3.9 4.1-2-2.6c-2.8-3.5-5-10.4-6.6-20.4-1.7-11.1-.3-8.9 1.9 2.9 1 5.2 2.1 9.9 2.5 10.3.4.5 1.1-7.4 1.5-17.4.4-10.1 1-17.6 1.5-16.8.4.8 1.5 5.9 2.4 11.4zM65.7 241.2c-.3.7-.5.2-.5-1.2s.2-1.9.5-1.3c.2.7.2 1.9 0 2.5zM153 336c0 .5-.9 1.4-2 2-1.6.8-2 .8-2-.4 0-1.3 1.3-2.3 3.3-2.5.4-.1.7.3.7.9zm-7 3.4c0 .7-2.4 2.5-5.2 3.9l-5.3 2.6 4.5-3.9c4.9-4.3 6-4.8 6-2.6zm7.6 7.1c-1.1.8-2.9 1.5-4 1.5-2.1-.1-2.1-.1-.2-1.5 1.1-.8 2.9-1.5 4-1.5 2.1.1 2.1.1.2 1.5zm64.9 9.9c14.1 6.6 14.7 6.9 15.9 8.8 1.1 1.8 0 4.7-4 10.3-1.2 1.6-2.7 4.8-3.4 7-.7 2.2-1.9 4.9-2.5 6-.7 1.1-2.1 4.5-3 7.5-1 3-2.1 5.9-2.5 6.5-.4.5-1.3 2.8-2 5-.6 2.2-2.5 6.9-4 10.5-1.6 3.6-3.9 9.1-5.1 12.3-2.8 7.2-4.4 8.6-6.6 6.4-1.8-1.8-2.5-13.9-3.7-63.9-.3-13-.6-24-.7-24.5-.5-3 .6-3 5.9.1 3.1 1.9 10.2 5.5 15.7 8zM146 349c0 .6-2.8 2.4-6.2 4.2-3.5 1.7-8.8 4.4-11.8 5.9-6.9 3.6-7.6 3.6-5.1 0 2.2-3.1 10.2-6.8 12-5.6.6.3 1.1.2 1.1-.4 0-1.1 6.7-5 8.8-5.1.6 0 1.2.5 1.2 1zm7.6 2.6c-1.1.8-2.9 1.4-4 1.4-1.6-.1-1.3-.5 1.4-2 3.9-2 5.6-1.7 2.6.6zm-8.9 3c-.3.3-1.2.4-1.9.1-.8-.3-.5-.6.6-.6 1.1-.1 1.7.2 1.3.5zm11.4 2.4c.2 5.3.5 8.4 1.3 14.3.7 5.1.6 5.7-.8 5.1-.9-.3-1.6-1-1.6-1.4 0-.5-1.8-2.7-4-5-5.6-5.9-5.5-12.9.3-14.8 4.7-1.5 4.7-1.5 4.8 1.8zm-11.5 4.8c-.4.3-1.2 0-1.9-.7-.9-.9-.9-1.4.3-2.1 1.1-.7 1.6-.5 1.8.6.2.9.1 1.8-.2 2.2zm-2.4-.1c2.3 2.1 2.3 4.2-.2 15.6-2.5 11.2-6.6 20-11.3 24.6-3.1 2.9-4.1 3.3-7.1 2.8-3.1-.5-8.4-3.6-13.6-7.9-3-2.5-7-8.5-7-10.6 0-1.1-.6-2.3-1.2-2.6-.9-.3-.3-1.3 1.6-2.8 1.6-1.3 5.2-4.6 8.1-7.5 6.1-6 9.3-7.8 19-10.9 8.6-2.8 9.4-2.8 11.7-.7zm107.5 13.5c3.4 2 4 4.3 2.3 8.3-.8 1.9-.9 1.9-.9-.3-.1-3.4-1.7-2.6-3.5 1.8-2 5-2 7.4-.1 9 .8.7 1.5 2.1 1.5 3.1 0 2.4-5.1 13.9-7.9 17.8-2.3 3.2-2.6 6.2-1.1 9.2.9 1.5.7 2-.7 2.5-1 .3-2.6 1-3.7 1.6-1.4.8-2.4.4-4.8-1.9-3.2-3-3.3-5.2-.4-11.6 2.8-6.2 7.9-23.2 7.8-26 0-1.6-.8-4-1.7-5.4-1.3-2-1.6-3.7-1.1-7.6.4-2.8.9-5.4 1.2-5.8.5-.9 8.2 2.2 13.1 5.3z"/><path d="M257.3 180.7c.9.2 2.3.2 3 0 .6-.3-.1-.5-1.8-.5-1.6 0-2.2.2-1.2.5zM271 183.4c0 .2.7.7 1.6 1 .8.3 1.2.2.9-.4-.6-1-2.5-1.4-2.5-.6zM275.5 186.8c.4.8 1.1 2.6 1.5 4 .7 2.2.8 2.3.9.6.1-1.1-.6-2.9-1.5-4-.8-1-1.2-1.3-.9-.6zM278.2 197c0 1.4.2 1.9.5 1.2.2-.6.2-1.8 0-2.5-.3-.6-.5-.1-.5 1.3zM269.1 207.5c-.1.5.8 2.1 1.9 3.5 1.1 1.4 2 2 2 1.4 0-.7-.9-2.2-2-3.5-1-1.3-1.9-2-1.9-1.4zM292 220.5c0 .5.5 1.7 1 2.5s1 1 1 .5c0-.6-.5-1.7-1-2.5s-1-1.1-1-.5zM245.1 296.6c1.2 1.5 7.9 4.7 8.5 4.2.1-.2-2-1.5-4.7-3-2.8-1.4-4.5-2-3.8-1.2zM269.8 304.7c.6.2 1.8.2 2.5 0 .6-.3.1-.5-1.3-.5-1.4 0-1.9.2-1.2.5zM143 175.9c0 .5.7 1.5 1.7 2.2 1.5 1.3 1.5 1.2.4-.9-1.2-2.3-2.1-2.8-2.1-1.3zM143 206.5c1.3 1.4 2.6 2.5 2.8 2.5.3 0-.5-1.1-1.8-2.5s-2.6-2.5-2.8-2.5c-.3 0 .5 1.1 1.8 2.5zM325.8 226.7c.6.2 1.8.2 2.5 0 .6-.3.1-.5-1.3-.5-1.4 0-1.9.2-1.2.5zM324.1 231.6c0 1.1.3 1.4.6.6.3-.7.2-1.6-.1-1.9-.3-.4-.6.2-.5 1.3zM247 19c1.4.4 3.6.8 5 .8h2.5L252 19c-1.4-.4-3.6-.8-5-.8h-2.5l2.5.8zM256.3 20.7c.9.2 2.3.2 3 0 .6-.3-.1-.5-1.8-.5-1.6 0-2.2.2-1.2.5zM268.8 23.9c4.5 1.6 9.8 4.3 11.6 5.9 1.8 1.6 6.2 4.6 9.7 6.7 12.5 7.6 25.5 18 37.9 30.4 13.2 13.2 13.6 13.3 2.8 1.1-10.9-12.3-15-16.4-21.8-21.6-3.6-2.7-7.1-5.5-7.8-6.2-.7-.6-1.8-1.2-2.3-1.2-.5 0-2.6-1.5-4.6-3.3-6.7-5.9-21.3-12.8-29.9-14.1-2.5-.4-1 .4 4.4 2.3zM147.2 28.7c-1.8.8-3.1 1.7-2.9 1.9.2.2 2.1-.5 4.3-1.6 2.1-1 3.5-1.9 2.9-1.9-.5 0-2.5.7-4.3 1.6zM139 32.7c-1.4.9-2.9 2.2-3.5 2.8-.5.6-3 2.4-5.4 4.1-9 5.9-21.9 19.6-28.5 30.3-2.4 3.9 1.7-.6 5.5-6.1 6-8.6 15.2-17.5 25.7-24.9 4.8-3.4 9.1-6.5 9.7-7 1.6-1.6-.9-1-3.5.8z"/><path d="M98.7 74.4c-3 4.5-8 14.1-9.3 17.9-.8 2.1-2.2 5-3.2 6.5-1.1 1.5-2.3 3.8-2.7 5.2-.4 1.4-1.8 5.3-3.1 8.7-1.3 3.4-2.4 7-2.4 8 .1 1 .7.2 1.4-1.7 2.7-7.1 6.4-15.6 7.9-18.5.9-1.7 2.6-5.5 3.9-8.5 1.3-3 4-8.8 6-12.8 3.8-7.2 4.4-9.3 1.5-4.8zM339.1 84.5c3.2 3.8 8 14.7 11.4 25.3 1.9 5.9 3.4 9.8 3.5 8.7.1-3 3.8 7.1 5.1 14 .6 3.3 2 13.6 3 23 1.3 12.7 1.7 14.6 1.4 7.5-.9-20.1-3.7-39.7-6.5-45.5-5.2-11-8.9-19.7-9.4-22.1-.4-1.6-2.8-5.2-5.4-7.9-2.6-2.8-4-4.2-3.1-3zM349.5 94c.9 1.6 1.8 3 2.1 3 .2 0-.2-1.4-1.1-3-.9-1.7-1.8-3-2.1-3-.2 0 .2 1.3 1.1 3zM352 98.3c0 .4 2 5.1 4.4 10.5 5.4 11.9 7.8 19.8 11 36.7 1.3 7.1 2.5 11.8 2.5 10.4.2-5.5-5.3-29.7-8.5-37.9-3.6-9.1-9.3-21-9.4-19.7z"/><path d="M354.1 121.7c-.2 2.4 2.1 11.8 3.1 12.8.7.7.9.2.5-1.5-1-4.7-3.5-12.5-3.6-11.3zM76.5 126c-.4 1.7-.5 3.4-.2 3.6.2.3.7-1 1.1-2.7.8-4.2 0-5-.9-.9zM73.5 139.5c-1 4.2-1.5 7.8-1.3 8 .3.3 1.2-3 2.1-7.2.9-4.2 1.5-7.8 1.3-8.1-.2-.2-1.2 3.1-2.1 7.3zM370.2 164c0 1.9.2 2.7.5 1.7.2-.9.2-2.5 0-3.5-.3-.9-.5-.1-.5 1.8zM363.2 191c0 3 .3 7.7.8 10.5.7 4.6.7 4.3.8-3.5 0-4.7-.3-9.4-.8-10.5-.6-1.4-.9-.4-.8 3.5zM370.3 217.5c0 2.7.2 3.8.4 2.2.2-1.5.2-3.7 0-5-.2-1.2-.4 0-.4 2.8zM370.1 231.6c0 1.1.3 1.4.6.6.3-.7.2-1.6-.1-1.9-.3-.4-.6.2-.5 1.3zM371.1 361.6c0 1.1.3 1.4.6.6.3-.7.2-1.6-.1-1.9-.3-.4-.6.2-.5 1.3zM95.9 388.7c-1.3 1.6-1.2 1.7.4.4 1.6-1.3 2.1-2.1 1.3-2.1-.2 0-1 .8-1.7 1.7zM69.5 409.5c-2.9.7-3.9 1.3-2.5 1.3s4.8-.6 7.5-1.3c2.9-.7 3.9-1.3 2.5-1.3s-4.7.6-7.5 1.3zM90.7 410.1c.7.7 1.5 1 1.8.7.3-.3-.2-.9-1.2-1.2-1.4-.6-1.5-.5-.6.5zM59.8 411.7c.6.2 1.8.2 2.5 0 .6-.3.1-.5-1.3-.5-1.4 0-1.9.2-1.2.5zM52.8 412.7c.6.2 1.8.2 2.5 0 .6-.3.1-.5-1.3-.5-1.4 0-1.9.2-1.2.5zM101.8 413.7c.7.3 1.6.2 1.9-.1.4-.3-.2-.6-1.3-.5-1.1 0-1.4.3-.6.6zM109 415.1c2.5.9 10.1 10.5 16.5 20.9 1.9 3 3.5 5 3.5 4.3 0-1.4-12.3-19.8-15.8-23.6-1.4-1.5-3.5-2.7-4.6-2.6-1.8 0-1.8.2.4 1zM255.1 423.9c1.1 1.5 4.2 4.5 6.7 6.6 4 3.3 3.8 2.8-1.8-2.8-3.5-3.7-6.6-6.7-6.8-6.7-.1 0 .7 1.3 1.9 2.9zM268 436.4c0 .2.8 1 1.8 1.7 1.5 1.3 1.6 1.2.3-.4s-2.1-2.1-2.1-1.3zM124 437.9c0 .6.4 1.3 1 1.6.6.3.7-.1.4-.9-.7-1.8-1.4-2.1-1.4-.7zM274 442.8c0 .5.7 1.5 1.4 2.2 2.7 2.2 5.6 7.8 4.3 8.4-.7.2-.4.5.5.5 1.1.1 2.1 1.4 2.7 3.3.8 2.8.9 3 1 .9.1-2.4-2.8-7.4-7.6-13.4-1.3-1.6-2.3-2.4-2.3-1.9zM129.6 444.9c-.4.6-.2 1.1.3 1.1.6 0 1 .4.9.9-.2.5 1.1 3.5 2.7 6.7 3.7 7.3 3.4 6.8 3.9 6.3.3-.3-1.2-4-3.3-8.3-2.1-4.3-4.2-7.3-4.5-6.7z"/></svg>